<svg width="53" height="24" viewBox="0 0 53 24" fill="none" xmlns="http://www.w3.org/2000/svg">
<path d="M50.4609 0.519287H3.04687C1.78125 0.519287 0.75 1.45679 0.75 2.62866V4.97241C0.75 6.14429 1.78125 7.08179 3.04687 7.08179H4.26562V14.9333C4.26562 19.4333 7.07812 23.0896 10.5234 23.0896H42.5391C45.9844 23.0896 48.7969 19.4333 48.7969 14.9333V7.08179H50.4844C51.75 7.08179 52.7812 6.14429 52.7812 4.97241V2.62866C52.7812 1.45679 51.75 0.519287 50.4609 0.519287ZM46.9219 4.10522V5.20679H6.14062V4.10522C6.14062 3.51929 6.21094 2.95679 6.30469 2.39429H46.6875C46.8281 2.95679 46.9219 3.4021 46.9219 4.10522ZM3.04687 5.20679C2.78906 5.20679 2.625 5.06616 2.625 4.97241V2.62866C2.625 2.53491 2.78906 2.39429 3.04687 2.39429H4.40625C4.3125 2.95679 4.26562 3.51929 4.26562 4.10522V5.20679H3.04687ZM46.9219 14.9333C46.9219 18.4021 44.9531 21.2146 42.5391 21.2146H10.5C8.08594 21.2146 6.11719 18.4021 6.11719 14.9333V7.08179H46.8984V14.9333H46.9219ZM50.9062 4.97241C50.9062 5.06616 50.7422 5.20679 50.4844 5.20679H48.7969V4.10522C48.7969 3.42554 48.7266 2.88647 48.6094 2.39429H50.4609C50.7188 2.39429 50.8828 2.53491 50.8828 2.62866V4.97241H50.9062Z" fill="#F09804"/>
</svg>
